  0
SECTION
  2
HEADER
  9
$ACADVER
  1
AC1009
  9
$INSBASE
 10
0
 20
0
 30
0
  9
$EXTMIN
 10
0
 20
0
  9
$EXTMAX
 10
297
 20
210
  9
$LIMMIN
 10
0
 20
0
  9
$LIMMAX
 10
297
 20
210
  9
$LTSCALE
 40
1
  0
ENDSEC
  0
SECTION
  2
TABLES
  0
TABLE
  2
LTYPE
 70
     9
  0
LTYPE
  2
CONTINUOUS
 70
    64
  3
実線
 72
    65
 73
     0
 40
0.0
  0
LTYPE
  2
DASHED1
 70
    64
  3
--  --  --  --  --  --  --  --  
 72
    65
 73
     2
 40
2.5
 49
1.25
 49
-1.25
  0
LTYPE
  2
DASHED2
 70
    64
  3
----    ----    ----    ----    
 72
    65
 73
     2
 40
5.0
 49
2.5
 49
-2.5
  0
LTYPE
  2
DASHED3
 70
    64
  3
------  ------  ------  ------  
 72
    65
 73
     2
 40
5.0
 49
3.75
 49
-1.25
  0
LTYPE
  2
CENTER1
 70
    64
  3
----- - ----- - ----- - ----- - 
 72
    65
 73
     4
 40
10.0
 49
6.25
 49
-1.25
 49
1.25
 49
-1.25
  0
LTYPE
  2
CENTER2
 70
    64
  3
----------  --  ----------  --  
 72
    65
 73
     4
 40
20.0
 49
12.5
 49
-2.5
 49
2.5
 49
-2.5
  0
LTYPE
  2
PHANTOM1
 70
    64
  3
--- - - --- - - --- - - --- - - 
 72
    65
 73
     6
 40
10.0
 49
3.25
 49
-1.25
 49
1.25
 49
-1.25
 49
1.25
 49
-1.25
  0
LTYPE
  2
PHANTOM2
 70
    64
  3
--------  -  -  --------  -  -  
 72
    65
 73
     6
 40
20.0
 49
10.0
 49
-2.5
 49
1.25
 49
-2.5
 49
1.25
 49
-2.5
  0
LTYPE
  2
DOT
 70
    64
  3
-   -   -   -   -   -   -   -   
 72
    65
 73
     2
 40
2.5
 49
0.625
 49
-1.875
  0
LTYPE
  2
DUMMY
 70
    64
  3
ダミー
 72
    65
 73
     0
 40
0.0
  0
LTYPE
  2
RAND1
 70
    64
  3
ランダム線1
 72
    65
 73
     4
 40
10.0
 49
1.0
 49
-2.0
 49
3.0
 49
-4.0
  0
LTYPE
  2
RAND2
 70
    64
  3
ランダム線2
 72
    65
 73
     4
 40
14.0
 49
2.0
 49
-3.0
 49
4.0
 49
-5.0
  0
LTYPE
  2
RAND3
 70
    64
  3
ランダム線3
 72
    65
 73
     4
 40
18.0
 49
3.0
 49
-4.0
 49
5.0
 49
-6.0
  0
LTYPE
  2
RAND4
 70
    64
  3
ランダム線4
 72
    65
 73
     4
 40
22.0
 49
4.0
 49
-5.0
 49
6.0
 49
-7.0
  0
LTYPE
  2
RAND5
 70
    64
  3
ランダム線5
 72
    65
 73
     4
 40
26.0
 49
5.0
 49
-6.0
 49
7.0
 49
-8.0
  0
LTYPE
  2
LONG1
 70
    64
  3
----------  --  ----------  --  
 72
    65
 73
     4
 40
40.0
 49
32.5
 49
-2.5
 49
2.5
 49
-2.5
  0
LTYPE
  2
LONG2
 70
    64
  3
--------  -  -  --------  -  -  
 72
    65
 73
     6
 40
40.0
 49
30.0
 49
-2.5
 49
1.25
 49
-2.5
 49
1.25
 49
-2.5
  0
LTYPE
  2
LONG3
 70
    64
  3
+++++++++++++++..+++++++++++++++
 72
    65
 73
     2
 40
40.0
 49
37.5
 49
-2.5
  0
LTYPE
  2
LONG4
 70
    64
  3
+++++++++++++++..+++++++++++++++
 72
    65
 73
     2
 40
80.0
 49
75.0
 49
-5.0
  0
LTYPE
  2
LONG5
 70
    64
  3
----------  --  ----------  --  
 72
    65
 73
     4
 40
60.0
 49
37.5
 49
-7.5
 49
7.5
 49
-7.5
  0
LTYPE
  2
dashed
 70
   64
  3
-------   -------------   ------
 72
   65
 73
    2
 40
7.5
 49
6
 49
-1.5
  0
LTYPE
  2
dashed_spaced
 70
   64
  3
----        --------        ----
 72
   65
 73
    2
 40
12
 49
6
 49
-6
  0
LTYPE
  2
long_dashed_dotted
 70
   64
  3
------------- --- --------------
 72
   65
 73
    4
 40
15.25
 49
12
 49
-1.5
 49
0.25
 49
-1.5
  0
LTYPE
  2
long_dashed_double-dotted
 70
   64
  3
----------- --- --- ------------
 72
   65
 73
    6
 40
17
 49
12
 49
-1.5
 49
0.25
 49
-1.5
 49
0.25
 49
-1.5
  0
LTYPE
  2
long_dashed_triplicate-dotted
 70
   64
  3
--------- --- --- --- ----------
 72
   65
 73
    8
 40
18.75
 49
12
 49
-1.5
 49
0.25
 49
-1.5
 49
0.25
 49
-1.5
 49
0.25
 49
-1.5
  0
LTYPE
  2
dotted
 70
   64
  3
   -       -       -       -    
 72
   65
 73
    2
 40
1.75
 49
0.25
 49
-1.5
  0
LTYPE
  2
chain
 70
   64
  3
-------------- -- --------------
 72
   65
 73
    4
 40
18.5
 49
12
 49
-1.5
 49
3.5
 49
-1.5
  0
LTYPE
  2
chain_double_dash
 70
   64
  3
------------ -- -- -------------
 72
   65
 73
    6
 40
23.5
 49
12
 49
-1.5
 49
3.5
 49
-1.5
 49
3.5
 49
-1.5
  0
LTYPE
  2
dashed_dotted
 70
   64
  3
-----------     -     ----------
 72
   65
 73
    4
 40
9.25
 49
6
 49
-1.5
 49
0.25
 49
-1.5
  0
LTYPE
  2
double-dashed_dotted
 70
   64
  3
------   -----------   -   -----
 72
   65
 73
    6
 40
16.75
 49
6
 49
-1.5
 49
6
 49
-1.5
 49
0.25
 49
-1.5
  0
LTYPE
  2
dashed_double-dotted
 70
   64
  3
---------    -    -    ---------
 72
   65
 73
    6
 40
11
 49
6
 49
-1.5
 49
0.25
 49
-1.5
 49
0.25
 49
-1.5
  0
LTYPE
  2
double-dashed_double-dotted
 70
   64
  3
-----   ---------   -   -   ----
 72
   65
 73
    8
 40
18.5
 49
6
 49
-1.5
 49
6
 49
-1.5
 49
0.25
 49
-1.5
 49
0.25
 49
-1.5
  0
LTYPE
  2
dashed_triplicate-dotted
 70
   64
  3
-------    -    -    -    ------
 72
   65
 73
    8
 40
12.75
 49
6
 49
-1.5
 49
0.25
 49
-1.5
 49
0.25
 49
-1.5
 49
0.25
 49
-1.5
  0
LTYPE
  2
double-dashed_triplicate-dotted
 70
   64
  3
-----  ---------  -  -  -  -----
 72
   65
 73
   10
 40
20.25
 49
6
 49
-1.5
 49
6
 49
-1.5
 49
0.25
 49
-1.5
 49
0.25
 49
-1.5
 49
0.25
 49
-1.5
  0
LTYPE
  2
undefined
 70
   64
  3
--------------------------------
 72
   65
 73
    0
 40
0
  0
LTYPE
  2
_
 70
   64
  3
                                
 72
   65
 73
    0
 40
0
  0
LTYPE
  2
__18
 70
   64
  3
                                
 72
   65
 73
    0
 40
0
  0
LTYPE
  2
__19
 70
   64
  3
                                
 72
   65
 73
    0
 40
0
  0
LTYPE
  2
__20
 70
   64
  3
                                
 72
   65
 73
    0
 40
0
  0
LTYPE
  2
__21
 70
   64
  3
                                
 72
   65
 73
    0
 40
0
  0
LTYPE
  2
__22
 70
   64
  3
                                
 72
   65
 73
    0
 40
0
  0
LTYPE
  2
__23
 70
   64
  3
                                
 72
   65
 73
    0
 40
0
  0
LTYPE
  2
__24
 70
   64
  3
                                
 72
   65
 73
    0
 40
0
  0
LTYPE
  2
__25
 70
   64
  3
                                
 72
   65
 73
    0
 40
0
  0
LTYPE
  2
__26
 70
   64
  3
                                
 72
   65
 73
    0
 40
0
  0
LTYPE
  2
__27
 70
   64
  3
                                
 72
   65
 73
    0
 40
0
  0
LTYPE
  2
__28
 70
   64
  3
                                
 72
   65
 73
    0
 40
0
  0
LTYPE
  2
__29
 70
   64
  3
                                
 72
   65
 73
    0
 40
0
  0
LTYPE
  2
__30
 70
   64
  3
                                
 72
   65
 73
    0
 40
0
  0
LTYPE
  2
__31
 70
   64
  3
                                
 72
   65
 73
    0
 40
0
  0
LTYPE
  2
__32
 70
   64
  3
                                
 72
   65
 73
    0
 40
0
  0
ENDTAB
  0
TABLE
  2
STYLE
  5
3
100
AcDbSymbolTable
 70
     1
  0
STYLE
  5
10
100
AcDbSymbolTableRecord
100
AcDbTextStyleTableRecord
  2
STANDARD
 70
     0
 40
0.0
 41
1.0
 50
0.0
 71
     0
 42
0.2
  3
txt
  4
bigfont.shx
  0
STYLE
  5
26
100
AcDbSymbolTableRecord
100
AcDbTextStyleTableRecord
  2
TATEGAKI
 70
    68
 40
0.0
 41
1.0
 50
0.0
 71
     0
 42
1.0
  3
txt
  4
bigfont.shx
  0
ENDTAB
  0
TABLE
  2
LAYER
 70
    4
  0
LAYER
  2
_0-0_
 70
   64
 62
    7
  6
CONTINUOUS
  0
LAYER
  2
_0-1_
 70
   64
 62
    7
  6
CONTINUOUS
  0
LAYER
  2
_1-0_
 70
   64
 62
    7
  6
CONTINUOUS
  0
LAYER
  2
ADD_LINE
 70
   64
 62
    7
  6
CONTINUOUS
  0
ENDTAB
  0
ENDSEC
  0
SECTION
  2
BLOCKS
  0
ENDSEC
  0
SECTION
  2
ENTITIES
  0
LINE
  8
_0-0_
  6
CONTINUOUS
 62
    7
 10
712.12786033337932
 20
190.47674221378816
 11
750.17370754726778
 21
199.05074418354883
  0
LINE
  8
_0-0_
  6
CONTINUOUS
 62
    7
 10
759.84694053879264
 20
156.12722424993115
 11
841.14711689648971
 21
194.73138625621428
  0
LINE
  8
_0-0_
  6
CONTINUOUS
 62
    7
 10
672.04883158366556
 20
136.34106585817577
 11
759.84694053879264
 21
156.12722424993115
  0
LINE
  8
_0-0_
  6
CONTINUOUS
 62
    7
 10
4527.574550653595
 20
5482.3325163398686
 11
5364.074550653595
 21
-2046.1674836601305
  0
LINE
  8
_0-0_
  6
CONTINUOUS
 62
    7
 10
-3000.9254493464055
 20
5482.3325163398686
 11
-3837.4254493464055
 21
-2046.1674836601305
  0
LINE
  8
_0-0_
  6
CONTINUOUS
 62
    7
 10
-3837.4254493464055
 20
-2046.1674836601305
 11
-3683.657066993464
 21
-2046.1674836601305
  0
LINE
  8
_0-0_
  6
CONTINUOUS
 62
    7
 10
4527.574550653595
 20
-2046.1674836601305
 11
5364.074550653595
 21
-2046.1674836601305
  0
LINE
  8
_0-0_
  6
CONTINUOUS
 62
    7
 10
-3000.9254493464055
 20
-2046.1674836601305
 11
-3837.4254493464055
 21
-2046.1674836601305
  0
LINE
  8
_0-0_
  6
CONTINUOUS
 62
    7
 10
4527.574550653595
 20
-2046.1674836601305
 11
-3000.9254493464055
 21
-2046.1674836601305
  0
LINE
  8
_0-0_
  6
CONTINUOUS
 62
    7
 10
-3000.9254493464055
 20
5482.3325163398686
 11
4527.574550653595
 21
5482.3325163398686
  0
LINE
  8
_0-0_
  6
CONTINUOUS
 62
    7
 10
4449.486315359477
 20
5519.7222222222217
 11
5285.986315359477
 21
-2008.7777777777778
  0
LINE
  8
_0-0_
  6
CONTINUOUS
 62
    7
 10
-3079.013684640523
 20
5519.7222222222217
 11
-3915.513684640523
 21
-2008.7777777777778
  0
LINE
  8
_0-0_
  6
CONTINUOUS
 62
    7
 10
-3915.513684640523
 20
-2008.7777777777778
 11
-3761.7453022875816
 21
-2008.7777777777778
  0
LINE
  8
_0-0_
  6
CONTINUOUS
 62
    7
 10
4449.486315359477
 20
-2008.7777777777778
 11
5285.986315359477
 21
-2008.7777777777778
  0
LINE
  8
_0-0_
  6
CONTINUOUS
 62
    7
 10
-3079.013684640523
 20
-2008.7777777777778
 11
-3915.513684640523
 21
-2008.7777777777778
  0
LINE
  8
_0-0_
  6
CONTINUOUS
 62
    7
 10
4449.486315359477
 20
-2008.7777777777778
 11
-3079.013684640523
 21
-2008.7777777777778
  0
LINE
  8
_0-0_
  6
CONTINUOUS
 62
    7
 10
-3079.013684640523
 20
5519.7222222222217
 11
4449.486315359477
 21
5519.7222222222217
  0
LINE
  8
_0-0_
  6
CONTINUOUS
 62
    7
 10
8745.6144374416435
 20
10902.585200746962
 11
10408.614437441644
 21
-4064.4147992530343
  0
LINE
  8
_0-0_
  6
CONTINUOUS
 62
    7
 10
-6221.3855625583574
 20
10902.585200746962
 11
-7884.3855625583574
 21
-4064.4147992530343
  0
LINE
  8
_0-0_
  6
CONTINUOUS
 62
    7
 10
-7884.3855625583574
 20
-4064.4147992530343
 11
-7578.6870331465916
 21
-4064.4147992530343
  0
LINE
  8
_0-0_
  6
CONTINUOUS
 62
    7
 10
8745.6144374416435
 20
-4064.4147992530343
 11
10408.614437441644
 21
-4064.4147992530343
  0
LINE
  8
_0-0_
  6
CONTINUOUS
 62
    7
 10
-6221.3855625583574
 20
-4064.4147992530343
 11
-7884.3855625583574
 21
-4064.4147992530343
  0
LINE
  8
_0-0_
  6
CONTINUOUS
 62
    7
 10
8745.6144374416435
 20
-4064.4147992530343
 11
-6221.3855625583574
 21
-4064.4147992530343
  0
LINE
  8
_0-0_
  6
CONTINUOUS
 62
    7
 10
-6221.3855625583574
 20
10902.585200746962
 11
8745.6144374416435
 21
10902.585200746962
  0
LINE
  8
_0-0_
  6
CONTINUOUS
 62
    7
 10
763.55717699063666
 20
206.59735547099515
 11
759.84694053879252
 21
156.12722424993126
  0
LINE
  8
_0-0_
  6
CONTINUOUS
 62
    7
 10
672.04883158366556
 20
136.34106585817577
 11
672.04883158366556
 21
181.34106585817577
  0
LINE
  8
_0-0_
  6
CONTINUOUS
 62
    7
 10
672.04883158366556
 20
136.34106585817577
 11
682.04883158366556
 21
46.341065858175767
  0
LINE
  8
_0-0_
  6
CONTINUOUS
 62
    7
 10
582.04883158366556
 20
136.34106585817577
 11
572.04883158366556
 21
46.341065858175767
  0
LINE
  8
_0-0_
  6
CONTINUOUS
 62
    7
 10
572.04883158366556
 20
46.341065858175767
 11
573.88706687778313
 21
46.341065858175767
  0
LINE
  8
_0-0_
  6
CONTINUOUS
 62
    7
 10
672.04883158366556
 20
46.341065858175767
 11
682.04883158366556
 21
46.341065858175767
  0
LINE
  8
_0-0_
  6
CONTINUOUS
 62
    7
 10
582.04883158366556
 20
46.341065858175767
 11
572.04883158366556
 21
46.341065858175767
  0
LINE
  8
_0-0_
  6
CONTINUOUS
 62
    7
 10
672.04883158366556
 20
46.341065858175767
 11
582.04883158366556
 21
46.341065858175767
  0
LINE
  8
_0-0_
  6
CONTINUOUS
 62
    7
 10
582.04883158366556
 20
136.34106585817577
 11
672.04883158366556
 21
136.34106585817577
  0
LINE
  8
_0-0_
  6
CONTINUOUS
 62
    7
 10
582.04883158366556
 20
136.34106585817577
 11
582.04883158366556
 21
181.34106585817577
  0
LINE
  8
_0-0_
  6
CONTINUOUS
 62
    7
 10
582.04883158366556
 20
181.34106585817577
 11
582.04883158366556
 21
201.34106585817577
  0
LINE
  8
_0-0_
  6
CONTINUOUS
 62
    7
 10
672.04883158366556
 20
181.34106585817577
 11
672.04883158366556
 21
201.34106585817577
  0
LINE
  8
_0-0_
  6
CONTINUOUS
 62
    7
 10
607.04883158366556
 20
181.34106585817577
 11
647.04883158366556
 21
181.34106585817577
  0
LINE
  8
_0-0_
  6
CONTINUOUS
 62
    7
 10
759.84694053879264
 20
156.12722424993115
 11
789.3884443700066
 21
70.527577338332435
  0
LINE
  8
_0-0_
  6
CONTINUOUS
 62
    7
 10
672.04883158366556
 20
136.34106585817577
 11
682.0796445359623
 21
46.344494859520296
  0
LINE
  8
_0-0_
  6
CONTINUOUS
 62
    7
 10
682.0796445359623
 20
46.344494859520296
 11
683.87290656527455
 21
46.748623911639484
  0
LINE
  8
_0-0_
  6
CONTINUOUS
 62
    7
 10
779.63309893054793
 20
68.329115294804055
 11
789.3884443700066
 21
70.527577338332435
  0
LINE
  8
_0-0_
  6
CONTINUOUS
 62
    7
 10
691.83498997542085
 20
48.542956903048676
 11
682.0796445359623
 21
46.344494859520296
  0
LINE
  8
_0-0_
  6
CONTINUOUS
 62
    7
 10
779.63309893054793
 20
68.329115294804055
 11
691.83498997542085
 21
48.542956903048676
  0
LINE
  8
_0-0_
  6
CONTINUOUS
 62
    7
 10
841.14711689648971
 20
194.73138625621428
 11
888.78463183140582
 21
117.72056123254868
  0
LINE
  8
_0-0_
  6
CONTINUOUS
 62
    7
 10
759.84694053879264
 20
156.12722424993115
 11
789.41774961644273
 21
70.537696558202612
  0
LINE
  8
_0-0_
  6
CONTINUOUS
 62
    7
 10
789.41774961644273
 20
70.537696558202612
 11
791.07829243420611
 21
71.326180259311343
  0
LINE
  8
_0-0_
  6
CONTINUOUS
 62
    7
 10
879.75127890277281
 20
113.43120989851721
 11
888.78463183140582
 21
117.72056123254868
  0
LINE
  8
_0-0_
  6
CONTINUOUS
 62
    7
 10
798.45110254507574
 20
74.827047892234077
 11
789.41774961644273
 21
70.537696558202612
  0
LINE
  8
_0-0_
  6
CONTINUOUS
 62
    7
 10
879.75127890277281
 20
113.43120989851721
 11
798.45110254507574
 21
74.827047892234077
  0
LINE
  8
_0-0_
  6
CONTINUOUS
 62
    7
 10
911.9712688730101
 20
250.26461501888167
 11
975.37384785529082
 21
185.61082179376879
  0
LINE
  8
_0-0_
  6
CONTINUOUS
 62
    7
 10
841.14711689648971
 20
194.73138625621428
 11
888.81099543954372
 21
117.73687552828643
  0
LINE
  8
_0-0_
  6
CONTINUOUS
 62
    7
 10
888.81099543954372
 20
117.73687552828643
 11
890.25756717109027
 21
118.87113265170693
  0
LINE
  8
_0-0_
  6
CONTINUOUS
 62
    7
 10
967.50449763567747
 20
179.4404630423613
 11
975.37384785529082
 21
185.61082179376879
  0
LINE
  8
_0-0_
  6
CONTINUOUS
 62
    7
 10
896.68034565915707
 20
123.90723427969392
 11
888.81099543954372
 21
117.73687552828643
  0
LINE
  8
_0-0_
  6
CONTINUOUS
 62
    7
 10
967.50449763567747
 20
179.4404630423613
 11
896.68034565915707
 21
123.90723427969392
  0
LINE
  8
_0-0_
  6
CONTINUOUS
 62
    7
 10
841.14711689648971
 20
194.73138625621428
 11
911.9712688730101
 21
250.26461501888167
  0
LINE
  8
_0-0_
  6
CONTINUOUS
 62
    7
 10
759.84694053879264
 20
156.12722424993115
 11
750.17370754726778
 21
199.05074418354883
  0
LINE
  8
_0-0_
  6
CONTINUOUS
 62
    7
 10
711.42726549635404
 20
170.8423548570527
 11
672.04883158366556
 21
136.34106585817577
  0
LINE
  8
_0-0_
  6
CONTINUOUS
 62
    7
 10
841.14711689648971
 20
194.73138625621428
 11
813.99753839029677
 21
229.35652722251311
  0
LINE
  8
_0-0_
  6
CONTINUOUS
 62
    7
 10
860.34636098426984
 20
241.55434031144065
 11
911.9712688730101
 21
250.26461501888167
  0
LINE
  8
_0-0_
  6
CONTINUOUS
 62
    7
 10
759.84694053879252
 20
156.12722424993126
 11
782.4303228603751
 21
166.85060258500991
  0
LINE
  8
_0-0_
  6
CONTINUOUS
 62
    7
 10
841.14711689648971
 20
194.73138625621428
 11
818.56373457490713
 21
184.00800792113563
  0
LINE
  8
_0-0_
  6
CONTINUOUS
 62
    7
 10
799.69058870516881
 20
223.75476080712087
 11
841.14711689648971
 21
194.73138625621428
  0
LINE
  8
_0-0_
  6
CONTINUOUS
 62
    7
 10
975.37384785529082
 20
185.61082179376879
 11
979.68683372560531
 21
194.63291428290162
  0
LINE
  8
_0-0_
  6
CONTINUOUS
 62
    7
 10
911.9712688730101
 20
250.26461501888167
 11
921.07449699767574
 21
254.40360495729601
  0
LINE
  8
_0-0_
  6
CONTINUOUS
 62
    7
 10
602.04883158366556
 20
201.34106585817577
 11
582.04883158366556
 21
201.34106585817577
  0
LINE
  8
_0-0_
  6
CONTINUOUS
 62
    7
 10
607.04883158366556
 20
196.34106585817577
 11
607.04883158366556
 21
181.34106585817577
  0
ARC
  8
_0-0_
  6
CONTINUOUS
 62
    7
 10
602.04883158366556
 20
196.34106585817577
 40
5
 50
0
 51
90
  0
LINE
  8
_0-0_
  6
CONTINUOUS
 62
    7
 10
647.04883158366556
 20
196.34106585817577
 11
647.04883158366556
 21
181.34106585817577
  0
LINE
  8
_0-0_
  6
CONTINUOUS
 62
    7
 10
652.04883158366556
 20
201.34106585817577
 11
672.04883158366556
 21
201.34106585817577
  0
ARC
  8
_0-0_
  6
CONTINUOUS
 62
    7
 10
652.04883158366556
 20
196.34106585817577
 40
5
 50
90
 51
180
  0
LINE
  8
_0-0_
  6
CONTINUOUS
 62
    7
 10
757.12314998958948
 20
220.14738486394467
 11
763.55717699063666
 21
206.59735547099515
  0
ARC
  8
_0-0_
  6
CONTINUOUS
 62
    7
 10
761.63982645390604
 20
222.29206053096038
 40
5
 50
115.39999999999999
 51
205.40000000000001
  0
LINE
  8
_0-0_
  6
CONTINUOUS
 62
    7
 10
793.25656170412151
 20
237.3047902000705
 11
799.69058870516881
 21
223.75476080712087
  0
LINE
  8
_0-0_
  6
CONTINUOUS
 62
    7
 10
786.59520957278926
 20
239.67679099737126
 11
759.49515078689024
 21
226.80873699527689
  0
ARC
  8
_0-0_
  6
CONTINUOUS
 62
    7
 10
788.73988523980506
 20
235.16011453305478
 40
5
 50
25.399999999999999
 51
115.39999999999999
  0
LINE
  8
_0-0_
  6
CONTINUOUS
 62
    7
 10
708.34941863541428
 20
184.4998384722947
 11
711.42726549635404
 21
170.8423548570527
  0
ARC
  8
_0-0_
  6
CONTINUOUS
 62
    7
 10
713.22709135514356
 20
185.59906949405888
 40
5
 50
102.70000000000002
 51
192.70000000000002
  0
LINE
  8
_0-0_
  6
CONTINUOUS
 62
    7
 10
851.70785873229931
 20
252.57143061889937
 11
860.34636098426984
 21
241.55434031144065
  0
LINE
  8
_0-0_
  6
CONTINUOUS
 62
    7
 10
844.68800424678898
 20
253.4209263530023
 11
813.99753839029677
 21
229.35652722251311
  0
ARC
  8
_0-0_
  6
CONTINUOUS
 62
    7
 10
847.77318362249264
 20
249.48625124319562
 40
5
 50
38.100000000000072
 51
128.09999999999999
  0
LINE
  8
_0-0_
  6
CONTINUOUS
 62
    7
 10
921.07449699767574
 20
254.40360495729601
 11
979.68683372560531
 21
194.63291428290162
  0
LINE
  8
_0-0_
  6
CONTINUOUS
 62
    4
 10
811.35556380172284
 20
227.28495452989455
 11
811.63673332441272
 21
227.50541959709085
  0
LINE
  8
_1-0_
  6
CONTINUOUS
 62
    4
 10
572.04883158366556
 20
40.43768722766869
 11
682.0796445359623
 21
40.43768722766869
  0
POINT
  8
_1-0_
 62
    4
 10
572.04883158366556
 20
40.43768722766869
  0
POINT
  8
_1-0_
 62
    4
 10
682.0796445359623
 20
40.43768722766869
  0
LINE
  8
_1-0_
  6
CONTINUOUS
 62
    4
 10
572.04883158366556
 20
40.43768722766869
 11
572.04883158366556
 21
43.341065858175767
  0
LINE
  8
_1-0_
  6
CONTINUOUS
 62
    4
 10
682.0796445359623
 20
40.43768722766869
 11
682.0796445359623
 21
43.344494859520296
  0
TEXT
  8
_1-0_
 62
    4
 10
625.18923805981387
 20
40.93768722766869
 40
2.5
 41
1
 50
0
  1
110
  0
LINE
  8
_1-0_
  6
CONTINUOUS
 62
    4
 10
582.04883158366556
 20
205.65827546296285
 11
607.04883158366556
 21
205.65827546296285
  0
POINT
  8
_1-0_
 62
    4
 10
582.04883158366556
 20
205.65827546296285
  0
POINT
  8
_1-0_
 62
    4
 10
607.04883158366556
 20
205.65827546296285
  0
LINE
  8
_1-0_
  6
CONTINUOUS
 62
    4
 10
582.04883158366556
 20
205.65827546296285
 11
582.04883158366556
 21
204.34106585817577
  0
LINE
  8
_1-0_
  6
CONTINUOUS
 62
    4
 10
607.04883158366556
 20
205.65827546296285
 11
607.04883158366556
 21
184.34106585817577
  0
TEXT
  8
_1-0_
 62
    4
 10
593.29883158366556
 20
206.15827546296285
 40
2.5
 41
1
 50
0
  1
25
  0
LINE
  8
_1-0_
  6
CONTINUOUS
 62
    4
 10
607.04883158366556
 20
205.65827546296285
 11
647.04883158366556
 21
205.65827546296285
  0
POINT
  8
_1-0_
 62
    4
 10
647.04883158366556
 20
205.65827546296285
  0
LINE
  8
_1-0_
  6
CONTINUOUS
 62
    4
 10
647.04883158366556
 20
205.65827546296285
 11
647.04883158366556
 21
184.34106585817577
  0
TEXT
  8
_1-0_
 62
    4
 10
625.79883158366556
 20
206.15827546296285
 40
2.5
 41
1
 50
0
  1
40
  0
LINE
  8
_1-0_
  6
CONTINUOUS
 62
    4
 10
647.04883158366556
 20
205.65827546296285
 11
672.04883158366556
 21
205.65827546296285
  0
POINT
  8
_1-0_
 62
    4
 10
672.04883158366556
 20
205.65827546296285
  0
LINE
  8
_1-0_
  6
CONTINUOUS
 62
    4
 10
672.04883158366556
 20
205.65827546296285
 11
672.04883158366556
 21
204.34106585817577
  0
TEXT
  8
_1-0_
 62
    4
 10
658.29883158366556
 20
206.15827546296285
 40
2.5
 41
1
 50
0
  1
25
  0
LINE
  8
_1-0_
  6
CONTINUOUS
 62
    4
 10
582.04883158366556
 20
213.15827546296285
 11
672.04883158366556
 21
213.15827546296285
  0
POINT
  8
_1-0_
 62
    4
 10
582.04883158366556
 20
213.15827546296285
  0
POINT
  8
_1-0_
 62
    4
 10
672.04883158366556
 20
213.15827546296285
  0
LINE
  8
_1-0_
  6
CONTINUOUS
 62
    4
 10
582.04883158366556
 20
213.15827546296285
 11
582.04883158366556
 21
204.34106585817577
  0
LINE
  8
_1-0_
  6
CONTINUOUS
 62
    4
 10
672.04883158366556
 20
213.15827546296285
 11
672.04883158366556
 21
204.34106585817577
  0
TEXT
  8
_1-0_
 62
    4
 10
625.79883158366556
 20
213.65827546296285
 40
2.5
 41
1
 50
0
  1
90
  0
LINE
  8
_1-0_
  6
CONTINUOUS
 62
    4
 10
567.74215345860546
 20
46.341065858175767
 11
567.74215345860546
 21
136.34106585817577
  0
POINT
  8
_1-0_
 62
    4
 10
567.74215345860546
 20
46.341065858175767
  0
POINT
  8
_1-0_
 62
    4
 10
567.74215345860546
 20
136.34106585817577
  0
LINE
  8
_1-0_
  6
CONTINUOUS
 62
    4
 10
567.74215345860546
 20
46.341065858175767
 11
569.04883158366556
 21
46.341065858175767
  0
LINE
  8
_1-0_
  6
CONTINUOUS
 62
    4
 10
567.74215345860546
 20
136.34106585817577
 11
579.04883158366556
 21
136.34106585817577
  0
TEXT
  8
_1-0_
 62
    4
 10
567.24215345860546
 20
90.091065858175767
 40
2.5
 41
1
 50
90
  1
90
  0
LINE
  8
_1-0_
  6
CONTINUOUS
 62
    4
 10
567.74215345860546
 20
136.34106585817577
 11
567.74215345860546
 21
201.34106585817577
  0
POINT
  8
_1-0_
 62
    4
 10
567.74215345860546
 20
201.34106585817577
  0
LINE
  8
_1-0_
  6
CONTINUOUS
 62
    4
 10
567.74215345860546
 20
201.34106585817577
 11
579.04883158366556
 21
201.34106585817577
  0
TEXT
  8
_1-0_
 62
    4
 10
567.24215345860546
 20
167.59106585817577
 40
2.5
 41
1
 50
90
  1
65
  0
LINE
  8
_1-0_
  6
CONTINUOUS
 62
    4
 10
575.02156522331143
 20
136.34106585817577
 11
575.02156522331143
 21
181.34106585817577
  0
POINT
  8
_1-0_
 62
    4
 10
575.02156522331143
 20
136.34106585817577
  0
POINT
  8
_1-0_
 62
    4
 10
575.02156522331143
 20
181.34106585817577
  0
LINE
  8
_1-0_
  6
CONTINUOUS
 62
    4
 10
575.02156522331143
 20
136.34106585817577
 11
579.04883158366556
 21
136.34106585817577
  0
LINE
  8
_1-0_
  6
CONTINUOUS
 62
    4
 10
575.02156522331143
 20
181.34106585817577
 11
604.04883158366556
 21
181.34106585817577
  0
TEXT
  8
_1-0_
 62
    4
 10
574.52156522331143
 20
157.59106585817577
 40
2.5
 41
1
 50
90
  1
45
  0
LINE
  8
_1-0_
  6
CONTINUOUS
 62
    4
 10
575.02156522331143
 20
181.34106585817577
 11
575.02156522331143
 21
201.34106585817577
  0
POINT
  8
_1-0_
 62
    4
 10
575.02156522331143
 20
201.34106585817577
  0
LINE
  8
_1-0_
  6
CONTINUOUS
 62
    4
 10
575.02156522331143
 20
201.34106585817577
 11
579.04883158366556
 21
201.34106585817577
  0
TEXT
  8
_1-0_
 62
    4
 10
574.52156522331143
 20
190.09106585817577
 40
2.5
 41
1
 50
90
  1
20
  0
LINE
  8
_1-0_
  6
CONTINUOUS
 62
    4
 10
684.30112319897034
 20
36.487016624759121
 11
791.60992303301464
 21
60.670099103571253
  0
POINT
  8
_1-0_
 62
    4
 10
684.30112319897034
 20
36.487016624759121
  0
POINT
  8
_1-0_
 62
    4
 10
791.60992303301464
 20
60.670099103571253
  0
LINE
  8
_1-0_
  6
CONTINUOUS
 62
    4
 10
684.30112319897034
 20
36.487016624759121
 11
682.73918314902085
 21
43.41789122768273
  0
LINE
  8
_1-0_
  6
CONTINUOUS
 62
    4
 10
791.60992303301464
 20
60.670099103571253
 11
790.04798298306514
 21
67.600973706494869
  0
TEXT
  8
_1-0_
 62
    4
 10
736.01647274391769
 20
48.65411350297655
 40
2.5
 41
1
 50
12.699999999999871
  1
110
  0
LINE
  8
_1-0_
  6
CONTINUOUS
 62
    4
 10
705.62731717814222
 20
196.5787552382736
 11
748.55083711175985
 21
206.25198822979843
  0
POINT
  8
_1-0_
 62
    4
 10
705.62731717814222
 20
196.5787552382736
  0
POINT
  8
_1-0_
 62
    4
 10
748.55083711175985
 20
206.25198822979843
  0
LINE
  8
_1-0_
  6
CONTINUOUS
 62
    4
 10
705.62731717814222
 20
196.5787552382736
 11
710.76772688329561
 21
173.76895848889026
  0
LINE
  8
_1-0_
  6
CONTINUOUS
 62
    4
 10
748.55083711175985
 20
206.25198822979843
 11
749.51416893420924
 21
201.97734781538639
  0
TEXT
  8
_1-0_
 62
    4
 10
725.75973586284238
 20
201.6283312505679
 40
2.5
 41
1
 50
12.69999999999968
  1
44
  0
LINE
  8
_1-0_
  6
CONTINUOUS
 62
    4
 10
659.73051272558962
 20
191.00175743011857
 11
747.5286216807167
 21
210.78791582187395
  0
POINT
  8
_1-0_
 62
    4
 10
659.73051272558962
 20
191.00175743011857
  0
POINT
  8
_1-0_
 62
    4
 10
747.5286216807167
 20
210.78791582187395
  0
LINE
  8
_1-0_
  6
CONTINUOUS
 62
    4
 10
659.73051272558962
 20
191.00175743011857
 11
671.38929297060702
 21
139.26766949001333
  0
LINE
  8
_1-0_
  6
CONTINUOUS
 62
    4
 10
747.5286216807167
 20
210.78791582187395
 11
759.18740192573409
 21
159.05382788176888
  0
TEXT
  8
_1-0_
 62
    4
 10
702.30022592104444
 20
201.10779614252814
 40
2.5
 41
1
 50
12.69999999999968
  1
90
  0
LINE
  8
_1-0_
  6
CONTINUOUS
 62
    4
 10
753.21261313684624
 20
199.73559113581888
 11
762.8858461283711
 21
156.81207120220117
  0
POINT
  8
_1-0_
 62
    4
 10
753.21261313684624
 20
199.73559113581888
  0
POINT
  8
_1-0_
 62
    4
 10
762.8858461283711
 20
156.81207120220117
  0
LINE
  8
_1-0_
  6
CONTINUOUS
 62
    4
 10
753.21261313684624
 20
199.73559113581888
 11
753.10031117910535
 21
199.71028279660734
  0
LINE
  8
_1-0_
  6
CONTINUOUS
 62
    4
 10
762.8858461283711
 20
156.81207120220117
 11
762.7735441706302
 21
156.78676286298966
  0
TEXT
  8
_1-0_
 62
    4
 10
758.26218914914045
 20
179.60317245111875
 40
2.5
 41
1
 50
-77.300000000000679
  1
44
  0
LINE
  8
_1-0_
  6
CONTINUOUS
 62
    4
 10
703.9319959862695
 20
188.62972441284512
 11
708.10907386897338
 21
170.09456807787382
  0
POINT
  8
_1-0_
 62
    4
 10
703.9319959862695
 20
188.62972441284512
  0
POINT
  8
_1-0_
 62
    4
 10
708.10907386897338
 20
170.09456807787382
  0
LINE
  8
_1-0_
  6
CONTINUOUS
 62
    4
 10
703.9319959862695
 20
188.62972441284512
 11
747.24710391543022
 21
198.39120557049031
  0
LINE
  8
_1-0_
  6
CONTINUOUS
 62
    4
 10
708.10907386897338
 20
170.09456807787382
 11
708.50066186451647
 21
170.18281624399418
  0
TEXT
  8
_1-0_
 62
    4
 10
706.23349444415328
 20
180.69148752746821
 40
2.5
 41
1
 50
-77.300000000000679
  1
19
  0
LINE
  8
_1-0_
  6
CONTINUOUS
 62
    4
 10
708.10907386897338
 20
170.09456807787382
 11
713.60522897779424
 21
145.70620447922784
  0
POINT
  8
_1-0_
 62
    4
 10
713.60522897779424
 20
145.70620447922784
  0
LINE
  8
_1-0_
  6
CONTINUOUS
 62
    4
 10
713.60522897779424
 20
145.70620447922784
 11
756.92033690695496
 21
155.46768563687306
  0
TEXT
  8
_1-0_
 62
    4
 10
711.07011093991559
 20
159.22972756065957
 40
2.5
 41
1
 50
-77.300000000000679
  1
25
  0
LINE
  8
_1-0_
  6
CONTINUOUS
 62
    4
 10
793.49580637078577
 20
61.877493055350186
 11
892.91835744032289
 21
109.08679124530417
  0
POINT
  8
_1-0_
 62
    4
 10
793.49580637078577
 20
61.877493055350186
  0
POINT
  8
_1-0_
 62
    4
 10
892.91835744032289
 20
109.08679124530417
  0
LINE
  8
_1-0_
  6
CONTINUOUS
 62
    4
 10
793.49580637078577
 20
61.877493055350186
 11
790.67524977021606
 21
67.817571459742538
  0
LINE
  8
_1-0_
  6
CONTINUOUS
 62
    4
 10
892.91835744032289
 20
109.08679124530417
 11
890.09780083975318
 21
115.02686964969654
  0
TEXT
  8
_1-0_
 62
    4
 10
841.29886066473398
 20
85.129556421627939
 40
2.5
 41
1
 50
25.40000000000008
  1
110
  0
LINE
  8
_1-0_
  6
CONTINUOUS
 62
    4
 10
730.15370568790274
 20
218.66103160508024
 11
752.73708800948509
 21
229.38440994015886
  0
POINT
  8
_1-0_
 62
    4
 10
730.15370568790274
 20
218.66103160508024
  0
POINT
  8
_1-0_
 62
    4
 10
752.73708800948509
 20
229.38440994015886
  0
LINE
  8
_1-0_
  6
CONTINUOUS
 62
    4
 10
730.15370568790274
 20
218.66103160508024
 11
758.56013513858329
 21
158.83723012852118
  0
LINE
  8
_1-0_
  6
CONTINUOUS
 62
    4
 10
752.73708800948509
 20
229.38440994015886
 11
762.2703715904272
 21
209.30736134958505
  0
TEXT
  8
_1-0_
 62
    4
 10
740.10176016591322
 20
223.93821950229727
 40
2.5
 41
1
 50
25.399999999999903
  1
25
  0
LINE
  8
_1-0_
  6
CONTINUOUS
 62
    4
 10
752.73708800948509
 20
229.38440994015886
 11
788.87049972401724
 21
246.54181527628469
  0
POINT
  8
_1-0_
 62
    4
 10
788.87049972401724
 20
246.54181527628469
  0
LINE
  8
_1-0_
  6
CONTINUOUS
 62
    4
 10
788.87049972401724
 20
246.54181527628469
 11
798.40378330495935
 21
226.46476668571077
  0
TEXT
  8
_1-0_
 62
    4
 10
769.46015718397052
 20
237.87861133789951
 40
2.5
 41
1
 50
25.399999999999903
  1
40
  0
LINE
  8
_1-0_
  6
CONTINUOUS
 62
    4
 10
788.87049972401724
 20
246.54181527628469
 11
811.4538820455997
 21
257.26519361136332
  0
POINT
  8
_1-0_
 62
    4
 10
811.4538820455997
 20
257.26519361136332
  0
LINE
  8
_1-0_
  6
CONTINUOUS
 62
    4
 10
811.4538820455997
 20
257.26519361136332
 11
839.86031149628025
 21
197.44139213480418
  0
TEXT
  8
_1-0_
 62
    4
 10
798.81855420202783
 20
251.81900317350176
 40
2.5
 41
1
 50
25.399999999999903
  1
25
  0
LINE
  8
_1-0_
  6
CONTINUOUS
 62
    4
 10
727.62683349898748
 20
223.98261207504962
 11
808.92700985668444
 21
262.58677408133269
  0
POINT
  8
_1-0_
 62
    4
 10
727.62683349898748
 20
223.98261207504962
  0
POINT
  8
_1-0_
 62
    4
 10
808.92700985668444
 20
262.58677408133269
  0
LINE
  8
_1-0_
  6
CONTINUOUS
 62
    4
 10
727.62683349898748
 20
223.98261207504962
 11
758.56013513858306
 21
158.83723012852147
  0
LINE
  8
_1-0_
  6
CONTINUOUS
 62
    4
 10
808.92700985668444
 20
262.58677408133269
 11
839.86031149628025
 21
197.44139213480418
  0
TEXT
  8
_1-0_
 62
    4
 10
766.93328499505526
 20
243.20019180786889
 40
2.5
 41
1
 50
25.399999999999903
  1
90
  0
LINE
  8
_1-0_
  6
CONTINUOUS
 62
    4
 10
751.7746359186624
 20
223.14276700483452
 11
760.35333858672527
 21
205.07606114756854
  0
POINT
  8
_1-0_
 62
    4
 10
751.7746359186624
 20
223.14276700483452
  0
POINT
  8
_1-0_
 62
    4
 10
760.35333858672527
 20
205.07606114756854
  0
LINE
  8
_1-0_
  6
CONTINUOUS
 62
    4
 10
751.7746359186624
 20
223.14276700483452
 11
756.78514490830048
 21
225.52193159506749
  0
LINE
  8
_1-0_
  6
CONTINUOUS
 62
    4
 10
760.35333858672527
 20
205.07606114756854
 11
760.84717111204679
 21
205.31055007078572
  0
TEXT
  8
_1-0_
 62
    4
 10
755.97948598237156
 20
215.45305075898222
 40
2.5
 41
1
 50
-64.600000000000406
  1
20
  0
LINE
  8
_1-0_
  6
CONTINUOUS
 62
    4
 10
760.35333858672527
 20
205.07606114756854
 11
779.2264844564636
 21
165.32930826158355
  0
POINT
  8
_1-0_
 62
    4
 10
779.2264844564636
 20
165.32930826158355
  0
LINE
  8
_1-0_
  6
CONTINUOUS
 62
    4
 10
779.2264844564636
 20
165.32930826158355
 11
762.55694641738251
 21
157.414029650141
  0
TEXT
  8
_1-0_
 62
    4
 10
769.70541025127216
 20
186.54632138735673
 40
2.5
 41
1
 50
-64.600000000000406
  1
44
  0
LINE
  8
_1-0_
  6
CONTINUOUS
 62
    4
 10
747.26287188195556
 20
221.00042392994578
 11
774.71472041975699
 21
163.18696518669438
  0
POINT
  8
_1-0_
 62
    4
 10
747.26287188195556
 20
221.00042392994578
  0
POINT
  8
_1-0_
 62
    4
 10
774.71472041975699
 20
163.18696518669438
  0
LINE
  8
_1-0_
  6
CONTINUOUS
 62
    4
 10
747.26287188195556
 20
221.00042392994578
 11
756.78514490830037
 21
225.52193159506746
  0
LINE
  8
_1-0_
  6
CONTINUOUS
 62
    4
 10
774.71472041975699
 20
163.18696518669438
 11
762.55694641738251
 21
157.41402965014061
  0
TEXT
  8
_1-0_
 62
    4
 10
760.90429488053405
 20
193.43733124110076
 40
2.5
 41
1
 50
-64.600000000000406
  1
64
  0
LINE
  8
_1-0_
  6
CONTINUOUS
 62
    4
 10
811.59116767708372
 20
227.46969156581588
 11
823.31484930475801
 21
212.51792614855049
  0
POINT
  8
_1-0_
 62
    4
 10
811.59116767708372
 20
227.46969156581588
  0
POINT
  8
_1-0_
 62
    4
 10
823.31484930475801
 20
212.51792614855049
  0
LINE
  8
_1-0_
  6
CONTINUOUS
 62
    4
 10
811.59116767708372
 20
227.46969156581588
 11
811.63673332441272
 21
227.50541959709085
  0
LINE
  8
_1-0_
  6
CONTINUOUS
 62
    4
 10
823.31484930475801
 20
212.51792614855049
 11
857.9855559183859
 21
239.7032326860184
  0
TEXT
  8
_1-0_
 62
    4
 10
817.07518115797563
 20
221.28599557220525
 40
2.5
 41
1
 50
-51.89999999999965
  1
19
  0
LINE
  8
_1-0_
  6
CONTINUOUS
 62
    4
 10
823.31484930475801
 20
212.51792614855049
 11
838.74074618327666
 21
192.84455059951705
  0
POINT
  8
_1-0_
 62
    4
 10
838.74074618327666
 20
192.84455059951705
  0
LINE
  8
_1-0_
  6
CONTINUOUS
 62
    4
 10
838.74074618327666
 20
192.84455059951705
 11
909.61046380712605
 21
248.41350739345941
  0
TEXT
  8
_1-0_
 62
    4
 10
830.6499704110721
 20
203.97342508905581
 40
2.5
 41
1
 50
-51.899999999999849
  1
25
  0
LINE
  8
_1-0_
  6
CONTINUOUS
 62
    4
 10
806.56684685978735
 20
223.53012081858753
 11
833.71642536598017
 21
188.9049798522887
  0
POINT
  8
_1-0_
 62
    4
 10
806.56684685978735
 20
223.53012081858753
  0
POINT
  8
_1-0_
 62
    4
 10
833.71642536598017
 20
188.9049798522887
  0
LINE
  8
_1-0_
  6
CONTINUOUS
 62
    4
 10
806.56684685978735
 20
223.53012081858753
 11
811.63673332441283
 21
227.50541959709085
  0
LINE
  8
_1-0_
  6
CONTINUOUS
 62
    4
 10
833.71642536598017
 20
188.9049798522887
 11
838.78631183060565
 21
192.88027863079208
  0
TEXT
  8
_1-0_
 62
    4
 10
819.76380877993847
 20
207.50973705046016
 40
2.5
 41
1
 50
-51.899999999999849
  1
44
  0
LINE
  8
_1-0_
  6
CONTINUOUS
 62
    4
 10
812.16810545017449
 20
231.68968953756254
 11
846.79324641647327
 21
258.83926804375551
  0
POINT
  8
_1-0_
 62
    4
 10
812.16810545017449
 20
231.68968953756254
  0
POINT
  8
_1-0_
 62
    4
 10
846.79324641647327
 20
258.83926804375551
  0
LINE
  8
_1-0_
  6
CONTINUOUS
 62
    4
 10
812.16810545017449
 20
231.68968953756254
 11
812.14643076487459
 21
231.71733228839713
  0
LINE
  8
_1-0_
  6
CONTINUOUS
 62
    4
 10
846.79324641647327
 20
258.83926804375551
 11
858.49525335884755
 21
243.91514537732468
  0
TEXT
  8
_1-0_
 62
    4
 10
828.18848921830181
 20
244.88665145771373
 40
2.5
 41
1
 50
38.100000000000357
  1
44
  0
LINE
  8
_1-0_
  6
CONTINUOUS
 62
    4
 10
846.79324641647327
 20
258.83926804375551
 11
882.99225742669489
 21
287.22291830022994
  0
POINT
  8
_1-0_
 62
    4
 10
882.99225742669489
 20
287.22291830022994
  0
LINE
  8
_1-0_
  6
CONTINUOUS
 62
    4
 10
882.99225742669489
 20
287.22291830022994
 11
910.12016124758793
 21
252.62542008476566
  0
TEXT
  8
_1-0_
 62
    4
 10
863.60056520656201
 20
272.65326583904744
 40
2.5
 41
1
 50
38.099999999999838
  1
46
  0
LINE
  8
_1-0_
  6
CONTINUOUS
 62
    4
 10
808.68213299315948
 20
236.13551501147347
 11
879.50628496967988
 21
291.66874377414086
  0
POINT
  8
_1-0_
 62
    4
 10
808.68213299315948
 20
236.13551501147347
  0
POINT
  8
_1-0_
 62
    4
 10
879.50628496967988
 20
291.66874377414086
  0
LINE
  8
_1-0_
  6
CONTINUOUS
 62
    4
 10
808.68213299315948
 20
236.13551501147347
 11
812.14643076487448
 21
231.71733228839713
  0
LINE
  8
_1-0_
  6
CONTINUOUS
 62
    4
 10
879.50628496967988
 20
291.66874377414086
 11
910.12016124758782
 21
252.62542008476566
  0
TEXT
  8
_1-0_
 62
    4
 10
842.80202226639756
 20
263.5243020598619
 40
2.5
 41
1
 50
38.099999999999838
  1
90
  0
LINE
  8
_1-0_
  6
CONTINUOUS
 62
    4
 10
894.50798891725412
 20
110.47123042058021
 11
981.07084133300123
 21
178.34517668606256
  0
POINT
  8
_1-0_
 62
    4
 10
894.50798891725412
 20
110.47123042058021
  0
POINT
  8
_1-0_
 62
    4
 10
981.07084133300123
 20
178.34517668606256
  0
LINE
  8
_1-0_
  6
CONTINUOUS
 62
    4
 10
894.50798891725412
 20
110.47123042058021
 11
890.662103064966
 21
115.37607046240242
  0
LINE
  8
_1-0_
  6
CONTINUOUS
 62
    4
 10
981.07084133300123
 20
178.34517668606256
 11
977.22495548071311
 21
183.25001672788477
  0
TEXT
  8
_1-0_
 62
    4
 10
936.00539402137974
 20
143.64472879841315
 40
2.5
 41
1
 50
38.099999999999554
  1
110
  0
TEXT
  8
_0-1_
 62
    3
 10
582.02619965174529
 20
233.78055077566091
 40
5
 41
1
 50
0
  1
キューブカバー自作用図面
  0
TEXT
  8
_0-1_
 62
    7
 10
607.0184045304452
 20
228.68010080041603
 40
4
 41
1
 50
0
  1
rev2 (2019.12.22)
  0
TEXT
  8
_1-0_
 62
    7
 10
770.10529248890111
 20
46.795929495693706
 40
4
 41
1
 50
0
  1
1:1 (A3印刷用)
  0
LINE
  8
_0-0_
  6
CONTINUOUS
 62
    7
 10
740.15273763109769
 20
297.08550191540269
 11
752.70786721168088
 21
299.91492256542369
  0
LINE
  8
_0-0_
  6
CONTINUOUS
 62
    7
 10
755.90003409888413
 20
285.75016098732988
 11
782.72909229692414
 21
298.48953444940332
  0
LINE
  8
_0-0_
  6
CONTINUOUS
 62
    7
 10
726.92665814369218
 20
279.22072871805062
 11
755.90003409888413
 21
285.75016098732988
  0
LINE
  8
_0-0_
  6
CONTINUOUS
 62
    7
 10
757.12441212799263
 20
302.40530429028098
 11
755.90003409888413
 21
285.75016098732988
  0
LINE
  8
_0-0_
  6
CONTINUOUS
 62
    7
 10
726.92665814369218
 20
279.22072871805062
 11
726.92665814369218
 21
294.07072871805059
  0
LINE
  8
_0-0_
  6
CONTINUOUS
 62
    7
 10
726.92665814369218
 20
279.22072871805062
 11
730.22665814369213
 21
249.52072871805058
  0
LINE
  8
_0-0_
  6
CONTINUOUS
 62
    7
 10
697.22665814369213
 20
279.22072871805062
 11
693.92665814369218
 21
249.52072871805058
  0
LINE
  8
_0-0_
  6
CONTINUOUS
 62
    7
 10
693.92665814369218
 20
249.52072871805058
 11
694.53327579075096
 21
249.52072871805058
  0
LINE
  8
_0-0_
  6
CONTINUOUS
 62
    7
 10
726.92665814369218
 20
249.52072871805058
 11
730.22665814369213
 21
249.52072871805058
  0
LINE
  8
_0-0_
  6
CONTINUOUS
 62
    7
 10
697.22665814369213
 20
249.52072871805058
 11
693.92665814369218
 21
249.52072871805058
  0
LINE
  8
_0-0_
  6
CONTINUOUS
 62
    7
 10
726.92665814369218
 20
249.52072871805058
 11
697.22665814369213
 21
249.52072871805058
  0
LINE
  8
_0-0_
  6
CONTINUOUS
 62
    7
 10
697.22665814369213
 20
279.22072871805062
 11
726.92665814369218
 21
279.22072871805062
  0
LINE
  8
_0-0_
  6
CONTINUOUS
 62
    7
 10
697.22665814369213
 20
279.22072871805062
 11
697.22665814369213
 21
294.07072871805059
  0
LINE
  8
_0-0_
  6
CONTINUOUS
 62
    7
 10
697.22665814369213
 20
294.07072871805059
 11
697.22665814369213
 21
300.67072871805061
  0
LINE
  8
_0-0_
  6
CONTINUOUS
 62
    7
 10
726.92665814369218
 20
294.07072871805059
 11
726.92665814369218
 21
300.67072871805061
  0
LINE
  8
_0-0_
  6
CONTINUOUS
 62
    7
 10
705.47665814369213
 20
294.07072871805059
 11
718.67665814369218
 21
294.07072871805059
  0
LINE
  8
_0-0_
  6
CONTINUOUS
 62
    7
 10
755.90003409888413
 20
285.75016098732988
 11
765.64873036318477
 21
257.50227750650231
  0
LINE
  8
_0-0_
  6
CONTINUOUS
 62
    7
 10
726.92665814369218
 20
279.22072871805062
 11
730.23682641795006
 21
249.52186028849428
  0
LINE
  8
_0-0_
  6
CONTINUOUS
 62
    7
 10
730.23682641795006
 20
249.52186028849428
 11
730.82860288762311
 21
249.65522287569362
  0
LINE
  8
_0-0_
  6
CONTINUOUS
 62
    7
 10
762.42946636816339
 20
256.77678503213792
 11
765.64873036318477
 21
257.50227750650231
  0
LINE
  8
_0-0_
  6
CONTINUOUS
 62
    7
 10
733.45609041297143
 20
250.24735276285867
 11
730.23682641795006
 21
249.52186028849428
  0
LINE
  8
_0-0_
  6
CONTINUOUS
 62
    7
 10
762.42946636816339
 20
256.77678503213792
 11
733.45609041297143
 21
250.24735276285867
  0
LINE
  8
_0-0_
  6
CONTINUOUS
 62
    7
 10
782.72909229692414
 20
298.48953444940332
 11
798.44947222544647
 21
273.07596219159365
  0
LINE
  8
_0-0_
  6
CONTINUOUS
 62
    7
 10
755.90003409888413
 20
285.75016098732988
 11
765.65840109450869
 21
257.50561684905944
  0
LINE
  8
_0-0_
  6
CONTINUOUS
 62
    7
 10
765.65840109450869
 20
257.50561684905944
 11
766.2063802243706
 21
257.76581647042531
  0
LINE
  8
_0-0_
  6
CONTINUOUS
 62
    7
 10
795.46846575899758
 20
271.66047625136326
 11
798.44947222544647
 21
273.07596219159365
  0
LINE
  8
_0-0_
  6
CONTINUOUS
 62
    7
 10
768.63940756095758
 20
258.92110278928982
 11
765.65840109450869
 21
257.50561684905944
  0
LINE
  8
_0-0_
  6
CONTINUOUS
 62
    7
 10
795.46846575899758
 20
271.66047625136326
 11
768.63940756095758
 21
258.92110278928982
  0
LINE
  8
_0-0_
  6
CONTINUOUS
 62
    7
 10
806.10106244917586
 20
316.81549994108354
 11
827.02391351332858
 21
295.47974817679631
  0
LINE
  8
_0-0_
  6
CONTINUOUS
 62
    7
 10
782.72909229692414
 20
298.48953444940332
 11
798.45817221613197
 21
273.08134590918712
  0
LINE
  8
_0-0_
  6
CONTINUOUS
 62
    7
 10
798.45817221613197
 20
273.08134590918712
 11
798.9355408875424
 21
273.4556507599159
  0
LINE
  8
_0-0_
  6
CONTINUOUS
 62
    7
 10
824.42702794085608
 20
293.44352978883182
 11
827.02391351332858
 21
295.47974817679631
  0
LINE
  8
_0-0_
  6
CONTINUOUS
 62
    7
 10
801.05505778860436
 20
275.1175642971516
 11
798.45817221613197
 21
273.08134590918712
  0
LINE
  8
_0-0_
  6
CONTINUOUS
 62
    7
 10
824.42702794085608
 20
293.44352978883182
 11
801.05505778860436
 21
275.1175642971516
  0
LINE
  8
_0-0_
  6
CONTINUOUS
 62
    7
 10
782.72909229692414
 20
298.48953444940332
 11
806.10106244917586
 21
316.81549994108354
  0
LINE
  8
_0-0_
  6
CONTINUOUS
 62
    7
 10
755.90003409888413
 20
285.75016098732988
 11
752.70786721168088
 21
299.91492256542369
  0
LINE
  8
_0-0_
  6
CONTINUOUS
 62
    7
 10
739.92154133487941
 20
290.60615408768001
 11
726.92665814369218
 21
279.22072871805062
  0
LINE
  8
_0-0_
  6
CONTINUOUS
 62
    7
 10
782.72909229692414
 20
298.48953444940332
 11
773.76973138988046
 21
309.91583096828191
  0
LINE
  8
_0-0_
  6
CONTINUOUS
 62
    7
 10
789.06484284589158
 20
313.94110928762802
 11
806.10106244917586
 21
316.81549994108354
  0
LINE
  8
_0-0_
  6
CONTINUOUS
 62
    7
 10
755.90003409888413
 20
285.75016098732988
 11
763.35255026500636
 21
289.28887583790583
  0
LINE
  8
_0-0_
  6
CONTINUOUS
 62
    7
 10
782.72909229692414
 20
298.48953444940332
 11
775.27657613080191
 21
294.95081959882737
  0
LINE
  8
_0-0_
  6
CONTINUOUS
 62
    7
 10
769.0484379937883
 20
308.06724805120245
 11
782.72909229692414
 21
298.48953444940332
  0
LINE
  8
_0-0_
  6
CONTINUOUS
 62
    7
 10
827.02391351332858
 20
295.47974817679631
 11
828.44719885053235
 21
298.45703869821011
  0
LINE
  8
_0-0_
  6
CONTINUOUS
 62
    7
 10
806.10106244917586
 20
316.81549994108354
 11
809.10512773031553
 21
318.18136662076029
  0
LINE
  8
_0-0_
  6
CONTINUOUS
 62
    7
 10
703.82665814369216
 20
300.67072871805061
 11
697.22665814369213
 21
300.67072871805061
  0
LINE
  8
_0-0_
  6
CONTINUOUS
 62
    7
 10
705.47665814369213
 20
299.02072871805058
 11
705.47665814369213
 21
294.07072871805059
  0
ARC
  8
_0-0_
  6
CONTINUOUS
 62
    7
 10
703.82665814369216
 20
299.02072871805058
 40
1.6500000000000004
 50
0
 51
90
  0
LINE
  8
_0-0_
  6
CONTINUOUS
 62
    7
 10
718.67665814369218
 20
299.02072871805058
 11
718.67665814369218
 21
294.07072871805059
  0
LINE
  8
_0-0_
  6
CONTINUOUS
 62
    7
 10
720.32665814369216
 20
300.67072871805061
 11
726.92665814369218
 21
300.67072871805061
  0
ARC
  8
_0-0_
  6
CONTINUOUS
 62
    7
 10
720.32665814369216
 20
299.02072871805058
 40
1.6500000000000004
 50
90
 51
180
  0
LINE
  8
_0-0_
  6
CONTINUOUS
 62
    7
 10
755.00118321764705
 20
306.87681398995437
 11
757.12441212799263
 21
302.40530429028098
  0
ARC
  8
_0-0_
  6
CONTINUOUS
 62
    7
 10
756.4916864508715
 20
307.58455696006956
 40
1.6500000000000004
 50
115.39999999999999
 51
205.40000000000001
  0
LINE
  8
_0-0_
  6
CONTINUOUS
 62
    7
 10
766.92520908344261
 20
312.53875775087585
 11
769.0484379937883
 21
308.06724805120245
  0
LINE
  8
_0-0_
  6
CONTINUOUS
 62
    7
 10
764.72696288010297
 20
313.3215180139851
 11
755.78394348075631
 21
309.07506019329401
  0
ARC
  8
_0-0_
  6
CONTINUOUS
 62
    7
 10
765.43470585021828
 20
311.83101478076071
 40
1.6500000000000004
 50
25.399999999999999
 51
115.39999999999999
  0
LINE
  8
_0-0_
  6
CONTINUOUS
 62
    7
 10
738.90585187076931
 20
295.1131236807098
 11
739.92154133487941
 21
290.60615408768001
  0
ARC
  8
_0-0_
  6
CONTINUOUS
 62
    7
 10
740.51548386827994
 20
295.47586991789206
 40
1.6500000000000004
 50
102.70000000000002
 51
192.70000000000002
  0
LINE
  8
_0-0_
  6
CONTINUOUS
 62
    7
 10
786.21413710274135
 20
317.57674908908939
 11
789.06484284589158
 21
313.94110928762802
  0
LINE
  8
_0-0_
  6
CONTINUOUS
 62
    7
 10
783.89758512252297
 20
317.85708268134334
 11
773.76973138988046
 21
309.91583096828191
  0
ARC
  8
_0-0_
  6
CONTINUOUS
 62
    7
 10
784.9156943165051
 20
316.55863989510715
 40
1.6500000000000004
 50
38.100000000000072
 51
128.09999999999999
  0
LINE
  8
_0-0_
  6
CONTINUOUS
 62
    7
 10
809.10512773031553
 20
318.18136662076029
 11
828.44719885053235
 21
298.45703869821011
  0
LINE
  8
_0-0_
  6
CONTINUOUS
 62
    4
 10
772.89787977565106
 20
309.23221197971782
 11
772.99066571813876
 21
309.3049654518926
  0
TEXT
  8
_1-0_
 62
    7
 10
833.79716155477161
 20
301.56340575917574
 40
4
 41
1
 50
0
  1
30% (1x1x1キューブ用)
  0
ENDSEC
  0
EOF
